<?xml version="1.0" encoding="UTF-8"?>
<svg xmlns="http://www.w3.org/2000/svg" width="396" height="396" fill="none">
  <path d="M336 273.1c-1.1 0-2.1.2-3 .6l-34-19.5-.6 1 33.6 19c-.6.6-1 1.1-1 1.8 0 1.6 2.2 2.9 5 2.9 2.9 0 5-1.3 5-3 0-1.5-2.1-2.8-5-2.8zm0 4.7c-2.3 0-4-1-4-1.8 0-.4.4-.8 1-1.2l1.2-.4 1.8-.3c2.4 0 4 1 4 1.9 0 .8-1.6 1.8-4 1.8zM222 312.7l-.5.9 37.4 21.3.5-1-37.3-21.2zM213.9 317.4l-.5 1 37.3 21.3.6-1-37.4-21.3zM109.2 318.7l62.8-37-.5-1-63.5 37.5c-.6-.2-1.2-.3-1.9-.3v-14.3l42.6-24.8-.5-1-43.1 25.2v14.9c-2.6.1-4.6 1.3-4.6 2.8 0 1.6 2.3 2.9 5 2.9 2.9 0 5.1-1.3 5.1-2.9 0-.8-.5-1.5-1.4-2zm-3.6 3.8c-2.4 0-4-1-4-1.8s1.4-1.7 3.5-1.8h1.6l1.4.4c1 .4 1.5.9 1.5 1.4 0 .9-1.7 1.8-4 1.8zM162.5 333.2l33.6-19.1-.5-1-34.1 19.5c-.9-.3-2-.6-3-.6-2.9 0-5 1.3-5 3 0 1.5 2.1 2.8 5 2.8 2.8 0 5-1.3 5-2.9 0-.6-.4-1.2-1-1.7zm-4 3.5c-2.4 0-4-.9-4-1.8 0-.8 1.6-1.8 4-1.8.6 0 1.2 0 1.8.2l1.2.5c.6.3 1 .7 1 1.1 0 .9-1.7 1.8-4 1.8z" fill="#CAD6F8"></path>
  <path d="M159.3 353.5v-7.8L130.2 329v-16.4l85.6-49.8-.5-.9L129 312v17.6l29.2 16.8v7.1c-2.7.1-4.7 1.4-4.7 2.9 0 .7.5 1.4 1.3 2l-35.2 20.6c-.9-.4-2-.6-3-.6-2.9 0-5 1.3-5 2.9 0 1.6 2.1 2.9 5 2.9 2.8 0 5-1.3 5-2.9 0-.6-.4-1.2-1-1.7l35.3-20.7c.8.2 1.7.4 2.6.4 2.9 0 5-1.3 5-3 0-1.4-1.8-2.6-4.3-2.7zM116.7 383c-2.4 0-4-1-4-1.8 0-.9 1.6-1.8 4-1.8.6 0 1.2 0 1.8.2l1.2.5c.6.3 1 .7 1 1.1 0 .9-1.7 1.8-4 1.8zm42-24.9l-1.4-.1c-.5 0-1-.2-1.4-.4-.8-.4-1.2-.8-1.2-1.3 0-.8 1.4-1.7 3.6-1.8h1c2 .1 3.3 1 3.3 1.8 0 .9-1.6 1.8-4 1.8zM59.7 276c-2.8 0-5-1.2-5-2.8 0-1.6 2.2-3 5-3 2.9 0 5 1.4 5 3s-2.1 2.8-5 2.8zm0-4.7c-2.3 0-4 1-4 1.9 0 .8 1.7 1.8 4 1.8 2.4 0 4-1 4-1.8 0-.9-1.6-1.9-4-1.9z" fill="#CAD6F8"></path>
  <path d="M94.3 249.8L57 271l.5.9 37.3-21.3-.5-1zM62 280c-2.8 0-5-1.2-5-2.8 0-1.6 2.2-2.9 5-2.9s5 1.3 5 2.9c0 1.6-2.2 2.8-5 2.8zm0-4.7c-2.4 0-4 1-4 1.9 0 .8 1.6 1.8 4 1.8 2.3 0 4-1 4-1.8 0-.9-1.7-1.9-4-1.9z" fill="#CAD6F8"></path>
  <path d="M98.4 255.2L61 276.5l.5 1L99 256l-.5-1zM78.6 296.1l85.6-49.7-.5-1-86.1 50.1v17.6l29.1 16.8v10l-11.1 6.5c-.8-.4-2-.6-3-.6-2.9 0-5 1.3-5 3 0 1.5 2.1 2.8 5 2.8 2.8 0 5-1.3 5-2.9 0-.6-.4-1.2-1-1.7l11.2-6.5v-11.2l-29.2-16.8V296zm14 54.4c-2.4 0-4-1-4-1.8s1.6-1.8 4-1.8c.6 0 1.2 0 1.8.2.5.1 1 .3 1.2.5.6.3 1 .7 1 1.1 0 .9-1.7 1.8-4 1.8zM83.6 167l62.8 37.1.6-.9-62.3-36.8c.7-.4 1-1 1-1.7 0-1.6-2.2-2.9-5-2.9s-5 1.3-5 2.9c0 1.4 1.9 2.6 4.3 2.8v14.4l43.2 25 .5-.8-42.6-24.8v-13.8c1 0 1.8-.2 2.5-.5zm-2.9-.5H80c-2-.2-3.3-1-3.3-1.8 0-.9 1.7-1.9 4-1.9 2.4 0 4 1 4 1.9 0 .4-.4.8-1 1.2l-1.3.4-1.3.2h-.4z" fill="#CAD6F8"></path>
  <path d="M50.1 187.1v-16.3l29.2-16.9v-8c2.4-.1 4.3-1.3 4.3-2.8 0-1.6-2.3-2.8-5-2.8-1 0-2 .1-2.9.4l-19-11.2c.6-.5 1-1 1-1.7 0-1.6-2.3-2.9-5-2.9-2.9 0-5.1 1.3-5.1 3 0 1.5 2.2 2.8 5 2.8 1.1 0 2.2-.2 3-.5l19 11c-.7.6-1.1 1.2-1.1 2 0 1.5 2 2.7 4.7 2.8v7.3l-29.1 16.9v17.5l86.1 50.1.6-.9L50 187.1zm2.5-57.5c-2.3 0-4-1-4-1.8 0-.9 1.7-1.8 4-1.8 2.4 0 4 1 4 1.8 0 .4-.3.8-1 1.2l-1.2.4c-.5.2-1.1.2-1.8.2zm22 13.5c0-.4.4-.9 1-1.2l1.4-.4a7 7 0 011.5-.2c2.4 0 4 1 4 1.8s-1.3 1.6-3.2 1.8h-.8-.3c-2.2 0-3.7-1-3.7-1.8zM109.5 145.3c.6-.5 1-1 1-1.7 0-1.6-2.2-2.9-5-2.9-2.9 0-5.1 1.3-5.1 2.9 0 1.6 2.2 2.9 5 2.9 1.2 0 2.2-.3 3-.6l34.2 19.4.5-.9-33.6-19.1zm-2.3-.1l-1.8.2c-2.3 0-4-1-4-1.8 0-.9 1.7-1.9 4-1.9 2.4 0 4 1 4 1.9 0 .4-.3.8-1 1.1-.2.2-.7.4-1.2.5zM371.9 191.1c-1.3 0-2.4.3-3.3.7L343 177V165l8.3-4.8-.5-1-8.8 5.2v13.4l25.6 14.8a2 2 0 00-.7 1.5c0 1.4 1.8 2.6 4.2 2.8v3.9l-59 34.7.4.9 59.7-35v-4.5c2.6 0 4.7-1.3 4.7-2.8 0-1.6-2.2-2.9-5-2.9zm.2 4.7h-1c-2-.2-3.2-1-3.2-1.8 0-.3.2-.7.7-1 .2-.2.6-.4 1.1-.5.6-.2 1.4-.3 2.2-.3 2.3 0 4 1 4 1.8s-1.5 1.7-3.8 1.8zM290.4 126.8c-2.8 0-5 1.2-5 2.9 0 .6.3 1.2 1 1.7l-33.6 19.1.5.9 34.1-19.4c.8.3 1.9.5 3 .5 2.8 0 5-1.3 5-2.8 0-1.7-2.2-3-5-3zm0 4.7l-1.8-.2a4 4 0 01-1.2-.5c-.6-.3-1-.7-1-1.1 0-1 1.7-1.9 4-1.9 2.4 0 4 1 4 1.9 0 .8-1.6 1.8-4 1.8zM321.7 161.2c-2.9 0-5-1.3-5-3 0-1.5 2.1-2.8 5-2.8 2.8 0 5 1.3 5 2.9 0 1.6-2.2 2.9-5 2.9zm0-4.7c-2.4 0-4 1-4 1.8s1.6 1.8 4 1.8c2.3 0 4-1 4-1.8 0-.9-1.7-1.8-4-1.8z" fill="#CAD6F8"></path>
  <path d="M321.4 157.8L284 179l.5 1 37.4-21.4-.5-1zM363.6 173.2c-2.8 0-5 1.3-5 2.9 0 .6.4 1.2 1 1.7L326 196.9l.5 1 34.1-19.5c.9.4 1.9.6 3 .6 2.9 0 5-1.3 5-2.9 0-1.6-2.1-2.9-5-2.9zm0 4.7c-.6 0-1.2 0-1.8-.2l-1.2-.5c-.6-.3-1-.7-1-1.1 0-.9 1.7-1.8 4-1.8 2.4 0 4 1 4 1.8 0 .9-1.6 1.8-4 1.8zM356.7 327.5c-1.2 0-2.2.2-3 .6L322.7 310v-10l29.2-16.8v-17.6l-86.2-50-.5.9 85.6 49.7v16.4l-29.1 16.8v11.2l30.8 18.1c-.6.5-1 1-1 1.7 0 1.6 2.2 2.9 5 2.9 2.9 0 5-1.3 5-2.9.1-1.6-2.1-2.9-5-2.9zm0 4.7c-2.4 0-4-1-4-1.8 0-.4.3-.8.9-1.1l1.3-.5 1.8-.2c2.3 0 4 1 4 1.8 0 .9-1.7 1.8-4 1.8z" fill="#CAD6F8"></path>
  <path d="M348.5 298.6c-1.2 0-2.2.2-3 .6l-54.7-29.6-.5.9 54 29.3c-.5.5-.8 1-.8 1.7 0 1.6 2.2 2.9 5 2.9s5-1.3 5-3c0-1.5-2.2-2.8-5-2.8zm0 4.7c-2.4 0-4-1-4-1.8 0-.4.3-.8.9-1.1l1.3-.5a7 7 0 011.8-.2c2.4 0 4 1 4 1.8s-1.6 1.8-4 1.8z" fill="#CAD6F8"></path>
  <path d="M217.3 319.3l132-80.4-.5-1-132 80.5.5 1z" fill="#BFCBF2"></path>
  <path d="M256.2 173.5a20.4 20.4 0 00-20.5 0l-116.2 67.8c-6.8 4-6.8 13.8 0 17.7l93.7 54.4-10.2 13.3h28.7a58 58 0 0028.9-7.8L366 257.5a11.7 11.7 0 000-20.2l-109.9-63.8z" fill="#EAEFFC"></path>
  <path d="M322.1 227.6l-106.4-61.5v157.5l129-74.6c3.8-2.2 5.7-6 5.7-9.8v-27.8L322 227.6zM104.1 217.6l-1.4-6.2H58.5v27.8c0 3.8 1.9 7.6 5.6 9.8l129 74.6V166.1l-89 51.5z" fill="#CAD6F8"></path>
  <path d="M193.1 166v157.6c7 4 15.6 4 22.6 0V166.1c-7-4-15.6-4-22.6 0z" fill="#DCE4FB"></path>
  <path d="M79.4 261.5v-13l3.5-2v13l-3.5 2z" fill="#3C3B95"></path>
  <path d="M79.4 248.6l-4.5-2.7 3.4-2 4.6 2.7-3.5 2z" fill="#A1B7F6"></path>
  <path d="M74.9 258.9v-13l4.5 2.7v13l-4.5-2.7z" fill="#7E9BED"></path>
  <path d="M91.1 268.3v-13l3.5-2v13l-3.5 2z" fill="#3C3B95"></path>
  <path d="M91.1 255.4l-4.5-2.7 3.4-2 4.6 2.7-3.5 2z" fill="#A1B7F6"></path>
  <path d="M86.6 265.7v-13l4.5 2.7v13l-4.5-2.7z" fill="#7E9BED"></path>
  <path d="M102.8 275.1v-13l3.5-2v13l-3.5 2z" fill="#3C3B95"></path>
  <path d="M102.8 262.1l-4.5-2.6 3.4-2 4.6 2.7-3.5 2z" fill="#A1B7F6"></path>
  <path d="M98.3 272.5v-13l4.5 2.6v13l-4.5-2.6z" fill="#7E9BED"></path>
  <path d="M114.6 282v-13l3.5-2v13l-3.5 2z" fill="#3C3B95"></path>
  <path d="M114.6 269l-4.5-2.7 3.4-2 4.6 2.7-3.5 2z" fill="#A1B7F6"></path>
  <path d="M110 279.3v-13l4.6 2.6v13l-4.5-2.6z" fill="#7E9BED"></path>
  <path d="M126.2 288.7v-13l3.5-2v13l-3.5 2z" fill="#3C3B95"></path>
  <path d="M126.2 275.7l-4.5-2.6 3.4-2 4.6 2.6-3.5 2z" fill="#A1B7F6"></path>
  <path d="M121.7 286v-13l4.5 2.7v13l-4.5-2.7z" fill="#7E9BED"></path>
  <path d="M138 295.5v-13l3.4-2v13l-3.5 2z" fill="#3C3B95"></path>
  <path d="M138 282.5l-4.6-2.6 3.4-2 4.6 2.6-3.5 2z" fill="#A1B7F6"></path>
  <path d="M133.4 292.8v-13l4.5 2.7v13l-4.5-2.7z" fill="#7E9BED"></path>
  <path d="M149.6 302.3v-13l3.5-2v13l-3.5 2z" fill="#3C3B95"></path>
  <path d="M149.6 289.3l-4.5-2.7 3.5-2 4.5 2.7-3.5 2z" fill="#A1B7F6"></path>
  <path d="M145 299.6v-13l4.6 2.7v13l-4.5-2.7z" fill="#7E9BED"></path>
  <path d="M161.3 309v-13l3.5-2v13l-3.5 2z" fill="#3C3B95"></path>
  <path d="M161.3 296l-4.5-2.6 3.5-2 4.5 2.7-3.5 2z" fill="#A1B7F6"></path>
  <path d="M156.8 306.4v-13l4.5 2.7v13l-4.5-2.7z" fill="#7E9BED"></path>
  <path d="M173 315.8v-13l3.5-2v13l-3.5 2z" fill="#3C3B95"></path>
  <path d="M173 302.8l-4.5-2.6 3.5-2 4.5 2.7-3.5 2z" fill="#A1B7F6"></path>
  <path d="M168.5 313.2v-13l4.5 2.6v13l-4.5-2.6zM329.4 261.5v-13l-3.4-2v13l3.4 2z" fill="#7E9BED"></path>
  <path d="M329.4 248.6l4.6-2.7-3.5-2-4.5 2.7 3.4 2z" fill="#A1B7F6"></path>
  <path d="M334 258.9v-13l-4.6 2.7v13l4.6-2.7z" fill="#3C3B95"></path>
  <path d="M317.7 268.3v-13l-3.4-2v13l3.4 2z" fill="#7E9BED"></path>
  <path d="M317.7 255.4l4.6-2.7-3.5-2-4.5 2.7 3.4 2z" fill="#A1B7F6"></path>
  <path d="M322.3 265.7v-13l-4.6 2.7v13l4.6-2.7z" fill="#3C3B95"></path>
  <path d="M306 275.1v-13l-3.4-2v13l3.4 2z" fill="#7E9BED"></path>
  <path d="M306 262.1l4.6-2.6-3.5-2-4.6 2.7 3.5 2z" fill="#A1B7F6"></path>
  <path d="M310.6 272.5v-13l-4.6 2.6v13l4.6-2.6z" fill="#3C3B95"></path>
  <path d="M294.2 282v-13l-3.5-2v13l3.5 2z" fill="#7E9BED"></path>
  <path d="M294.2 269l4.6-2.7-3.5-2-4.6 2.7 3.5 2z" fill="#A1B7F6"></path>
  <path d="M298.8 279.3v-13l-4.6 2.6v13l4.6-2.6z" fill="#3C3B95"></path>
  <path d="M282.6 288.7v-13l-3.5-2v13l3.5 2z" fill="#7E9BED"></path>
  <path d="M282.6 275.7l4.6-2.6-3.5-2-4.6 2.6 3.5 2z" fill="#A1B7F6"></path>
  <path d="M287.2 286v-13l-4.6 2.7v13l4.6-2.7z" fill="#3C3B95"></path>
  <path d="M271 295.5v-13l-3.6-2v13l3.5 2z" fill="#7E9BED"></path>
  <path d="M271 282.5l4.5-2.6-3.5-2-4.6 2.6 3.5 2z" fill="#A1B7F6"></path>
  <path d="M275.5 292.8v-13l-4.6 2.7v13l4.6-2.7z" fill="#3C3B95"></path>
  <path d="M259.2 302.3v-13l-3.5-2v13l3.5 2z" fill="#7E9BED"></path>
  <path d="M259.2 289.3l4.5-2.7-3.4-2-4.6 2.7 3.5 2z" fill="#A1B7F6"></path>
  <path d="M263.7 299.6v-13l-4.5 2.7v13l4.5-2.7z" fill="#3C3B95"></path>
  <path d="M247.5 309v-13l-3.5-2v13l3.5 2z" fill="#7E9BED"></path>
  <path d="M247.5 296l4.5-2.6-3.4-2-4.6 2.7 3.5 2z" fill="#A1B7F6"></path>
  <path d="M252 306.4v-13l-4.5 2.7v13l4.5-2.7z" fill="#3C3B95"></path>
  <path d="M235.8 315.8v-13l-3.5-2v13l3.5 2z" fill="#7E9BED"></path>
  <path d="M235.8 302.8l4.5-2.6-3.4-2-4.6 2.7 3.5 2z" fill="#A1B7F6"></path>
  <path d="M240.3 313.2v-13l-4.5 2.6v13l4.5-2.6z" fill="#3C3B95"></path>
  <path d="M215.7 131l129 74.7a11.3 11.3 0 010 19.6l-129 74.7c-7 4-15.6 4-22.6 0l-129-74.7a11.3 11.3 0 010-19.6l129-74.6c7-4 15.6-4 22.6 0z" fill="#fff"></path>
  <path d="M215.7 127l129 74.6a11.3 11.3 0 010 19.6l-129 74.6c-7 4-15.6 4-22.6 0l-129-74.6a11.3 11.3 0 010-19.6l129-74.6c7-4 15.6-4 22.6 0z" fill="#EFF3FD"></path>
  <path d="M213.6 143.8l105.5 61a9.3 9.3 0 010 16l-105.5 61a18.4 18.4 0 01-18.4 0l-105.5-61a9.3 9.3 0 010-16l105.5-61a18.4 18.4 0 0118.4 0z" fill="#61D8F9"></path>
  <path d="M213.2 143.8L314 202a8.8 8.8 0 010 15.3l-100.7 58.3a17.6 17.6 0 01-17.6 0L95 217.3a8.8 8.8 0 010-15.3l100.7-58.2a17.6 17.6 0 0117.6 0z" fill="#00BFF5"></path>
  <path d="M213.1 161.6c-5.4-3.1-12-3.1-17.4 0v111c5.4 3.2 12 3.2 17.4 0l.8-.4V162l-.8-.4z" fill="#D7E0FA"></path>
  <path d="M126.9 201.4l-1.1-4.7H91.6v10.7c0 3 1.5 5.9 4.4 7.6l99.7 57.7v-111l-68.8 39.7zM295.4 209.2L214 162v110.2l99-57.3c2.9-1.6 4.3-4.6 4.3-7.5v-10.7l-21.8 12.5z" fill="#CAD6F8"></path>
  <path d="M213.1 134.6l99.8 57.7a8.7 8.7 0 010 15.1L213 265.1c-5.4 3.1-12 3.1-17.4 0L96 207.4a8.7 8.7 0 010-15.1l99.7-57.7c5.4-3.1 12-3.1 17.4 0z" fill="#fff"></path>
  <path d="M213.1 132.4l99.8 57.8a8.7 8.7 0 010 15L213 263c-5.4 3.1-12 3.1-17.4 0L96 205.3a8.7 8.7 0 010-15.1l99.7-57.8c5.4-3 12-3 17.4 0z" fill="#D7E0FA"></path>
  <path d="M212.6 136l86.5 50c5 2.9 5 10.2 0 13l-86.5 50.1a15 15 0 01-15.1 0l-86.5-50c-5-3-5-10.2 0-13.1l86.5-50a15 15 0 0115.1 0z" fill="#A1B7F6"></path>
  <path d="M306.6 345.2a6.8 6.8 0 00-6.8 0l-38.6 22.5a3.4 3.4 0 000 5.9l31 18-3.3 4.4h9.5c3.4 0 6.7-.9 9.6-2.6l35-20.3a3.9 3.9 0 000-6.7l-36.4-21.2z" fill="#EAEFFC"></path>
  <path d="M315.6 362.2l-20.1-11.7a13.4 13.4 0 00-13.4 0l-10.4 5.6-.8-3.7h-26.3V369c0 2.2 1.1 4.5 3.3 5.8l33.5 19.4c4.2 2.4 9.3 2.4 13.5 0l34-19.3a6.7 6.7 0 003.4-5.9v-16.5l-16.8 9.7z" fill="#7E9BED"></path>
  <path d="M295.5 329.7l33.5 19.5c4.4 2.5 4.4 9 0 11.6L294.9 380a13.4 13.4 0 01-13.5 0L248 360.7a6.7 6.7 0 010-11.6l34.2-19.4c4.1-2.4 9.2-2.4 13.4 0z" fill="#fff"></path>
  <path d="M295.5 327.3l33.5 19.4c4.4 2.6 4.4 9 0 11.6l-34.1 19.4a13.4 13.4 0 01-13.5 0L248 358.3a6.7 6.7 0 010-11.7l34.2-19.3c4.1-2.4 9.2-2.4 13.4 0z" fill="#E8EEFC"></path>
  <path d="M293.5 334.4l24 14a4.8 4.8 0 010 8.3l-24.4 13.9a9.6 9.6 0 01-9.7 0l-24-14a4.8 4.8 0 010-8.3l24.5-14c3-1.6 6.6-1.6 9.6 0z" fill="#61D8F9"></path>
  <path opacity=".1" d="M320 280.4c0-1.6-.8-3.2-2.4-4.1l-24.1-14a9.6 9.6 0 00-9.6 0l-24.6 14a4.8 4.8 0 00-2.3 3.7v72.5c0 1.6.7 3.2 2.3 4.1l24.1 14c3 1.7 6.7 1.7 9.7 0l24.5-13.9c1.6-1 2.4-2.6 2.4-4.2v-72z" fill="url(#paint0_linear)"></path>
  <path d="M350.5 132.8c-1.7-.9-3.7-.9-5.3 0l-29.6 17.3a2.6 2.6 0 000 4.6l23.9 13.9-2.6 3.3h7.3c2.6 0 5.1-.7 7.4-2l27-15.6c1.9-1.2 1.9-4 0-5.2l-28.1-16.3z" fill="#EAEFFC"></path>
  <path d="M358.8 146.8l-15-8.7a10 10 0 00-10 0l-7.6 4.2-.6-2.8H306v12.3a5 5 0 002.5 4.4l25 14.4a10 10 0 0010 0l25.3-14.4a5 5 0 002.5-4.3v-12.3l-12.5 7.2z" fill="#7E9BED"></path>
  <path d="M343.9 122.7l24.9 14.4a5 5 0 010 8.7L343.4 160a10 10 0 01-10 0l-24.9-14.4a5 5 0 010-8.7l25.4-14.3a10 10 0 0110 0z" fill="#fff"></path>
  <path d="M343.9 120.9l24.9 14.4a5 5 0 010 8.6l-25.4 14.4a10 10 0 01-10 0L308.5 144a5 5 0 010-8.7l25.4-14.4a10 10 0 0110 0z" fill="#E8EEFC"></path>
  <path d="M342.4 126.1l17.9 10.4a3.6 3.6 0 010 6.2L342.1 153a7.2 7.2 0 01-7.2 0l-18-10.3a3.6 3.6 0 010-6.3l18.3-10.3c2.2-1.3 5-1.3 7.2 0z" fill="#61D8F9"></path>
  <path opacity=".1" d="M362.1 86c0-1.2-.6-2.4-1.8-3.1l-17.9-10.4a7.1 7.1 0 00-7.2 0L317 83a3.5 3.5 0 00-1.8 2.8v53.9c0 1.2.6 2.4 1.8 3l17.9 10.4c2.2 1.3 5 1.3 7.2 0l18.2-10.3c1.2-.7 1.8-1.9 1.8-3.1V86z" fill="url(#paint1_linear)"></path>
  <path d="M55.1 269c-1.3-.7-3-.7-4.2 0l-24.2 14.1a2.1 2.1 0 000 3.7L46.2 298l-2.1 2.7h6a12 12 0 006-1.6L78 286.5c1.6-1 1.6-3.3 0-4.2L55 269z" fill="#EAEFFC"></path>
  <path d="M60 280l-12.5-7.3a8.3 8.3 0 00-8.3 0l-6.4 3.5-.5-2.3H16V284c0 1.4.7 2.8 2 3.6l20.8 12a8.3 8.3 0 008.3 0l21.1-12c1.4-.7 2.1-2.1 2.1-3.5v-10.3L60 280z" fill="#7E9BED"></path>
  <path d="M47.5 259.8l20.7 12a4.2 4.2 0 010 7.3l-21 12a8.3 8.3 0 01-8.4 0L18.1 279a4.2 4.2 0 010-7.2l21.1-12a8.3 8.3 0 018.3 0z" fill="#fff"></path>
  <path d="M47.5 258.3l20.7 12a4.2 4.2 0 010 7.2l-21 12a8.3 8.3 0 01-8.4 0l-20.7-12a4.2 4.2 0 010-7.2l21.1-12a8.3 8.3 0 018.3 0z" fill="#E8EEFC"></path>
  <path d="M46.3 262.7l14.9 8.6c2 1.2 2 4 0 5.2L46 285.1a6 6 0 01-6 0l-14.9-8.6a3 3 0 010-5.2l15.2-8.6a6 6 0 016 0z" fill="#61D8F9"></path>
  <path opacity=".1" d="M62.7 188c0-1-.5-2-1.5-2.5l-15-8.6a6 6 0 00-5.9 0l-15.2 8.6a3 3 0 00-1.4 2.3V274c0 1 .4 2 1.4 2.6l15 8.6a6 6 0 005.9 0l15.2-8.6a3 3 0 001.5-2.6v-85.8z" fill="url(#paint2_linear)"></path>
  <path d="M240.1 164.7c-5 0-8.6-2-8.6-4 0-1.9 3.6-4 8.6-4 1.5 0 2.8.2 4 .5 1 .3 2 .6 2.7 1 1.3.8 2 1.6 2 2.5 0 2-3.6 4-8.7 4zM253 176.4c-5 0-8.6-2-8.6-4 0-1.8 3.6-3.9 8.6-3.9 1.5 0 2.8.2 4 .5 1 .3 2 .6 2.7 1 1.3.8 2 1.6 2 2.5 0 1.9-3.5 4-8.7 4zM227.2 152.9c-5 0-8.6-2-8.6-4 0-1.8 3.5-4 8.6-4 1.5 0 2.8.3 4 .5l2.7 1c1.2.8 2 1.7 2 2.5 0 2-3.6 4-8.7 4z" fill="#61D8F9"></path>
  <path d="M271.4 165.9l1-4 29.2 3v26.5c0 2.5-1.3 5-3.8 6.5l-2.6 1.5-3-1.4-3 5-5.8 3.2-3-1.4-3 5-5.7 3.2-3.5-1.5-2.6 5-5.7 3.3-3.3-1.6-2.2 4.8-6.2 3.6-3-1.8-3 5.3-5.8 3.3-2.7-2-3.3 5.5-5.7 3.3-2.6-2-3.5 5.5-6 3.5V131.8l58.8 34.1z" fill="#CAD6F8"></path>
  <path d="M212.5 131.8v115.4a14.9 14.9 0 01-15 0V131.8a14.9 14.9 0 0115 0z" fill="#DCE4FB"></path>
  <path d="M127.2 172.6l70.4-40.8v115.4l-6.1-3.5-3-6.8-3.1 3.3-5.7-3.3-3.1-6.9-3 3.4-5.6-3.3-3.6-7-2.5 3.5-5.7-3.3-3-6.8-3 3.3-5.7-3.3-3-6.8-3.1 3.3-5.7-3.3-3-6.8-3 3.3-5.7-3.3-3-6.8-3 3.3-2.7-1.5a7.4 7.4 0 01-3.8-6.5v-25.5l18.7 6.7z" fill="#CAD6F8"></path>
  <path d="M197.6 111.1l-85.4 49.4c-5 2.8-5 10 0 13l85.4 49.3a14.9 14.9 0 0015 0l85.2-49.4c5-2.8 5-10 0-13l-85.3-49.3a14.9 14.9 0 00-15 0z" fill="#fff"></path>
  <path d="M197.6 109.1l-85.4 49.4c-5 2.9-5 10 0 13l85.4 49.3a14.9 14.9 0 0015 0l85.2-49.4c5-2.8 5-10 0-12.9l-85.3-49.4a14.9 14.9 0 00-15 0z" fill="#E8EEFC"></path>
  <path d="M282.3 165l-71.5-41.4a12.5 12.5 0 00-12.5 0L126.7 165c-.9.6-1.6 1.3-2 2a6.3 6.3 0 012-8.7l71.6-41.4c3.9-2.2 8.6-2.2 12.5 0l71.5 41.4c3.3 1.9 4 6 2.2 8.8a6.2 6.2 0 00-2.2-2z" fill="#00BFF5"></path>
  <path d="M282.3 169.2l-71.5 41.3a12.5 12.5 0 01-12.5 0l-71.6-41.3c-.9-.6-1.6-1.3-2-2.1.4-.8 1.1-1.5 2-2l71.6-41.5c3.9-2.2 8.6-2.2 12.5 0l71.5 41.4c1 .6 1.6 1.3 2.2 2-.6.9-1.2 1.6-2.2 2.2z" fill="#61D8F9"></path>
  <path d="M295.2 199.4v-17.3l-6 3.5V203l6-3.5zM283.4 206.2v-17.3l-6 3.5v17.3l6-3.5zM271.7 213v-17.3l-6 3.5v17.3l6-3.5zM260 219.8v-17.3l-6.1 3.5v17.3l6-3.5zM248.2 226.6v-17.4l-6 3.6V230l6-3.5zM236.4 233.4V216l-6 3.6v17.3l6-3.5zM224.7 240.1v-17.3l-6 3.6v17.3l6-3.6zM115 199.4v-17.3l6 3.5V203l-6-3.5zM126.7 206.2v-17.3l6 3.5v17.3l-6-3.5zM138.4 213v-17.3l6 3.5v17.3l-6-3.5zM150.2 219.8v-17.3l6 3.5v17.3l-6-3.5zM162 226.6v-17.4l6 3.6V230l-6-3.5zM173.7 233.4V216l6 3.6v17.3l-6-3.5zM185.4 240.1v-17.3l6 3.6v17.3l-6-3.6z" fill="#3C3B95"></path>
  <path opacity=".1" d="M284.4 0h-160v161.8h.3c0 2.1 1 4.2 3 5.4l70.7 40.9c3.8 2.2 8.5 2.2 12.3 0l70.7-40.9c2-1.2 3-3.3 3-5.3V0z" fill="url(#paint3_linear)"></path>
  <path d="M186.1 153.4l4.6 6.5a12549.4 12549.4 0 0111.9 16.5l.5.9h.1a1.5 1.5 0 002.5 0 18295.2 18295.2 0 014.9-7 7743.2 7743.2 0 01-10.2-14.3h5.4l5.2 6.5 1.6 2h.1v.1a1.3 1.3 0 001.1.5h.4l.7-.5.3-.3 5.2-7.2 1.4-1.8a1.3 1.3 0 00.1-1.2c0-.3-.3-.6-.5-.8-.3-.2-.6-.3-1-.3H212l1.8 3h3.7l-3.6 5-.1.1-4.5-5.5-1.5-1.8a1.5 1.5 0 00-.7-.7h-9.6c-.4 0-.8 0-1 .3-.3.2-.5.5-.6.9a1.2 1.2 0 00.2 1 5648.9 5648.9 0 0110.6 14.3l.5.6-2.7 3.7-2-2.7-6.7-9.4-6.1-8.6H186l.1.2z" fill="#fff" fill-opacity=".7"></path>
  <defs>
    <linearGradient id="paint0_linear" x1="288.5" y1="261" x2="288.5" y2="371.9" gradientUnits="userSpaceOnUse">
      <stop stop-color="#2ACAF7"></stop>
      <stop offset=".2" stop-color="#2ACAF7"></stop>
      <stop offset="1" stop-color="#2ACAF7"></stop>
    </linearGradient>
    <linearGradient id="paint1_linear" x1="338.6" y1="71.6" x2="338.6" y2="154" gradientUnits="userSpaceOnUse">
      <stop stop-color="#2ACAF7"></stop>
      <stop offset=".2" stop-color="#2ACAF7"></stop>
      <stop offset="1" stop-color="#2ACAF7"></stop>
    </linearGradient>
    <linearGradient id="paint2_linear" x1="43.2" y1="176.1" x2="43.2" y2="285.9" gradientUnits="userSpaceOnUse">
      <stop stop-color="#2ACAF7"></stop>
      <stop offset=".2" stop-color="#2ACAF7"></stop>
      <stop offset="1" stop-color="#2ACAF7"></stop>
    </linearGradient>
    <linearGradient id="paint3_linear" x1="204" y1="0" x2="204.4" y2="209.7" gradientUnits="userSpaceOnUse">
      <stop stop-color="#2ACAF7" stop-opacity="0"></stop>
      <stop offset="1" stop-color="#2ACAF7"></stop>
    </linearGradient>
  </defs>
</svg>
