<?xml version="1.0" encoding="utf-8"?>
<svg xmlns="http://www.w3.org/2000/svg" data-name="Ebene 1" width="552" height="370" viewBox="0 0 552 370"><defs><linearGradient id="Gradient-0" x1="550.8" y1="-62.1" x2="392.5" y2="33.6" gradientUnits="userSpaceOnUse"><stop offset="0" stop-color="#fff"/><stop offset=".2" stop-color="#fbfbfc"/><stop offset=".5" stop-color="#eff0f3"/><stop offset=".7" stop-color="#dfe2e7"/></linearGradient><linearGradient id="Gradient-1" x1="592.2" y1="-80.4" x2="294.9" y2="63" gradientUnits="userSpaceOnUse"><stop offset=".6" stop-color="#fff"/><stop offset=".7" stop-color="#f4f5f7"/><stop offset=".8" stop-color="#e5e7eb"/><stop offset="1" stop-color="#dfe2e7"/></linearGradient><linearGradient id="Gradient-2" x1="244.8" y1="-15" x2="241.7" y2="108.3" gradientUnits="userSpaceOnUse"><stop offset=".4" stop-color="#fff"/><stop offset=".5" stop-color="#fbfbfc"/><stop offset=".6" stop-color="#eff0f3"/><stop offset=".7" stop-color="#dfe2e7"/></linearGradient><linearGradient id="Gradient-3" x1="245.7" y1="-24.9" x2="238.2" y2="160.4" gradientUnits="userSpaceOnUse"><stop offset=".4" stop-color="#fff"/><stop offset=".5" stop-color="#f4f5f7"/><stop offset=".8" stop-color="#e5e7eb"/><stop offset="1" stop-color="#dfe2e7"/></linearGradient><linearGradient id="Gradient-4" x1="660.6" y1="68.3" x2="445.2" y2="73.9" gradientUnits="userSpaceOnUse"><stop offset="0" stop-color="#f6f7f8" stop-opacity=".5"/><stop offset=".4" stop-color="#fff"/><stop offset=".5" stop-color="#fbfbfc"/><stop offset=".6" stop-color="#eff0f3"/><stop offset=".7" stop-color="#dfe2e7"/></linearGradient><linearGradient id="Gradient-5" x1="653" y1="10" x2="440.8" y2="123.3" gradientUnits="userSpaceOnUse"><stop offset=".6" stop-color="#fff"/><stop offset=".7" stop-color="#f4f5f7"/><stop offset=".8" stop-color="#e5e7eb"/><stop offset="1" stop-color="#dfe2e7"/></linearGradient><linearGradient id="Gradient-6" x1="-40.7" y1="571.8" x2="-40.7" y2="655" gradientUnits="userSpaceOnUse" gradientTransform="matrix(.9 .5 0 1.2 113.6 -487.1)"><stop offset="0" stop-color="#e7f9fc" stop-opacity="0"/><stop offset=".1" stop-color="#d8ecf7" stop-opacity=".05"/><stop offset=".4" stop-color="#9bb5e3" stop-opacity=".24"/><stop offset=".6" stop-color="#6f8ed5" stop-opacity=".38"/><stop offset=".8" stop-color="#5476cc" stop-opacity=".47"/><stop offset="1" stop-color="#4a6dc9" stop-opacity=".5"/></linearGradient><linearGradient id="Gradient-7" x1="85.9" y1="315.9" x2="213.5" y2="42.7" gradientUnits="userSpaceOnUse" gradientTransform="matrix(1 0 0 1 1.4 -7.8)"><stop offset="0" stop-color="#e7f9fc" stop-opacity=".3"/><stop offset=".3" stop-color="#a9c2e8" stop-opacity=".5"/><stop offset=".6" stop-color="#7593d7" stop-opacity=".66"/><stop offset=".8" stop-color="#5577cd" stop-opacity=".76"/><stop offset="1" stop-color="#4a6dc9" stop-opacity=".8"/></linearGradient><linearGradient id="Gradient-8" x1="-26.7" y1="745.6" x2="2.5" y2="745.6" gradientUnits="userSpaceOnUse" gradientTransform="matrix(.9 .5 .5 1.4 -122.1 -749.3)"><stop offset="0" stop-color="#e7f9fc" stop-opacity="0"/><stop offset=".1" stop-color="#d8ecf7" stop-opacity=".05"/><stop offset=".4" stop-color="#9bb5e3" stop-opacity=".24"/><stop offset=".6" stop-color="#6f8ed5" stop-opacity=".38"/><stop offset=".8" stop-color="#5476cc" stop-opacity=".47"/><stop offset="1" stop-color="#4a6dc9" stop-opacity=".5"/></linearGradient><linearGradient id="Gradient-9" x1="64.7" y1="678.8" x2="-14.7" y2="493.6" gradientUnits="userSpaceOnUse" gradientTransform="matrix(.9 .5 0 1.2 121 -509.9)"><stop offset="0" stop-color="#e7f9fc" stop-opacity="0"/><stop offset=".1" stop-color="#d8ecf7" stop-opacity=".05"/><stop offset=".4" stop-color="#9bb5e3" stop-opacity=".24"/><stop offset=".6" stop-color="#6f8ed5" stop-opacity=".38"/><stop offset=".8" stop-color="#5476cc" stop-opacity=".47"/><stop offset="1" stop-color="#4a6dc9" stop-opacity=".5"/></linearGradient><linearGradient id="Gradient-10" x1="-108.1" y1="581.8" x2="150" y2="581.8" gradientUnits="userSpaceOnUse" gradientTransform="matrix(.9 .5 0 1.2 121 -509.9)"><stop offset="0" stop-color="#72cbcc"/><stop offset="1" stop-color="#13ffa0"/></linearGradient><linearGradient id="Gradient-11" x1="-56.3" y1="580.1" x2="-56.3" y2="663.3" gradientUnits="userSpaceOnUse"><stop offset="0" stop-color="#e7f9fc" stop-opacity="0"/><stop offset=".1" stop-color="#d8ecf7" stop-opacity=".05"/><stop offset=".4" stop-color="#9bb5e3" stop-opacity=".24"/><stop offset=".6" stop-color="#6f8ed5" stop-opacity=".38"/><stop offset=".8" stop-color="#5476cc" stop-opacity=".47"/><stop offset="1" stop-color="#4a6dc9" stop-opacity=".5"/></linearGradient><linearGradient id="Gradient-12" x1="115.7" y1="524.1" x2="115.7" y2="688.2" gradientUnits="userSpaceOnUse"><stop offset="0" stop-color="#e7f9fc" stop-opacity="0"/><stop offset=".1" stop-color="#d8ecf7" stop-opacity=".05"/><stop offset=".4" stop-color="#9bb5e3" stop-opacity=".24"/><stop offset=".6" stop-color="#6f8ed5" stop-opacity=".38"/><stop offset=".8" stop-color="#5476cc" stop-opacity=".47"/><stop offset="1" stop-color="#4a6dc9" stop-opacity=".5"/></linearGradient><linearGradient id="Gradient-13" x1="-7.9" y1="548.2" x2="-7.9" y2="685.2" gradientUnits="userSpaceOnUse"><stop offset="0" stop-color="#e7f9fc" stop-opacity="0"/><stop offset=".1" stop-color="#d8ecf7" stop-opacity=".05"/><stop offset=".4" stop-color="#9bb5e3" stop-opacity=".24"/><stop offset=".6" stop-color="#6f8ed5" stop-opacity=".38"/><stop offset=".8" stop-color="#5476cc" stop-opacity=".47"/><stop offset="1" stop-color="#4a6dc9" stop-opacity=".5"/></linearGradient><linearGradient id="Gradient-14" x1="12.8" y1="536.9" x2="12.8" y2="673.9" gradientUnits="userSpaceOnUse"><stop offset="0" stop-color="#e7f9fc" stop-opacity="0"/><stop offset=".1" stop-color="#d8ecf7" stop-opacity=".05"/><stop offset=".4" stop-color="#9bb5e3" stop-opacity=".24"/><stop offset=".6" stop-color="#6f8ed5" stop-opacity=".38"/><stop offset=".8" stop-color="#5476cc" stop-opacity=".47"/><stop offset="1" stop-color="#4a6dc9" stop-opacity=".5"/></linearGradient><linearGradient id="Gradient-15" x1="136.4" y1="527.4" x2="136.4" y2="660.3" gradientUnits="userSpaceOnUse"><stop offset="0" stop-color="#e7f9fc" stop-opacity="0"/><stop offset=".1" stop-color="#d8ecf7" stop-opacity=".05"/><stop offset=".4" stop-color="#9bb5e3" stop-opacity=".24"/><stop offset=".6" stop-color="#6f8ed5" stop-opacity=".38"/><stop offset=".8" stop-color="#5476cc" stop-opacity=".47"/><stop offset="1" stop-color="#4a6dc9" stop-opacity=".5"/></linearGradient><linearGradient id="Gradient-16" x1="-260.9" y1="745.4" x2="-231.7" y2="745.4" gradientUnits="userSpaceOnUse" gradientTransform="matrix(.9 .5 .5 1.4 -122.1 -749.3)"><stop offset="0" stop-color="#4a6dc9" stop-opacity=".5"/><stop offset=".2" stop-color="#5476cc" stop-opacity=".47"/><stop offset=".4" stop-color="#6f8ed5" stop-opacity=".38"/><stop offset=".6" stop-color="#9bb5e3" stop-opacity=".24"/><stop offset=".9" stop-color="#d8ecf7" stop-opacity=".05"/><stop offset="1" stop-color="#e7f9fc" stop-opacity="0"/></linearGradient><linearGradient id="Gradient-17" x1="145.1" y1="207.4" x2="162.6" y2="177.1" gradientUnits="userSpaceOnUse"><stop offset="0" stop-color="#72cbcc"/><stop offset="1" stop-color="#13ffa0"/></linearGradient><linearGradient id="Gradient-18" x1="0" y1="25.6" x2="7.9" y2="25.6" gradientUnits="userSpaceOnUse"><stop offset="0" stop-color="#fff" stop-opacity=".4"/><stop offset=".9" stop-color="#fff" stop-opacity=".66"/></linearGradient><linearGradient id="Gradient-19" x1="77.9" y1="70.6" x2="107.9" y2="70.6" gradientUnits="userSpaceOnUse"><stop offset="0" stop-color="#fff" stop-opacity=".1"/><stop offset="1" stop-color="#fff" stop-opacity=".4"/></linearGradient></defs><style>
@keyframes a0_t { 0% { transform: translate(287.9px,141.6px) scale(.9,.9); } 25% { transform: translate(287.9px,141.6px) scale(.9,.9); animation-timing-function: cubic-bezier(.4,0,1,1); } 35% { transform: translate(434.2px,141.6px) scale(.9,.9); } 67.5% { transform: translate(272.2px,141.6px) scale(.9,.9); animation-timing-function: cubic-bezier(0,0,1,1); } 77.5% { transform: translate(435.2px,141.6px) scale(.9,.9); } 100% { transform: translate(435.2px,141.6px) scale(.9,.9); } }
@keyframes a0_o { 0% { opacity: 0; } 22.5% { opacity: 0; } 30% { opacity: .8; } 33.75% { opacity: .5; } 35% { opacity: 0; } 67.5% { opacity: 0; } 71.25% { opacity: .8; animation-timing-function: cubic-bezier(.4,0,1,1); } 76.25% { opacity: .5; } 100% { opacity: .5; } }
</style><title>neuste-Cloud_Tech_1</title><path d="M449.5-58.1l99.4 57.4l-111.8 64.6l-99.4-57.4l111.8-64.6Z" fill="url(#Gradient-0)" transform="translate(356,44)"/><path d="M449.5-69.6l99.4 57.4l-111.8 64.6l-99.4-57.4l111.8-64.6Z" fill="url(#Gradient-1)" transform="translate(356,44)"/><path d="M368.9 281.7l135.2-78.1l-135.2-78.1l-135.2 78.1l135.2 78.1Z" fill="#263d5d"/><path d="M368.9 268.2l135.2-78.1v-46.8l-135.2 78.1v46.8Z" fill="#718095"/><path d="M368.9 268.2l-135.2-78.1v-46.8l135.2 78.1v46.8Z" fill="#dfe2e7"/><path d="M383.6 242.9l69.2-40c3-1.8 5.5-6.5 5.5-10.5c0-4-2.4-5.9-5.5-4.2l-69.2 40c-3 1.8-5.5 6.5-5.5 10.5c0 4.1 2.5 5.9 5.5 4.2Z" fill="#263d5d"/><path d="M359.3 254.2c.9 .5 1.6 0 1.6-1.2v-23c0-0.3-0.1-0.6-0.1-0.9c-0.1-0.3-0.2-0.6-0.4-0.8c-0.1-0.3-0.3-0.6-0.5-0.8c-0.2-0.2-0.4-0.4-0.6-0.6c-0.9-0.5-1.6 0-1.6 1.2v23c0 .3 0 .6 .1 .9c.1 .3 .2 .6 .3 .8c.2 .3 .3 .6 .5 .8c.2 .2 .4 .4 .7 .6Z" fill="#95a0b0"/><path d="M352.7 251.2c.9 .5 1.6 0 1.6-1.2v-23c0-0.3 0-0.6-0.1-0.9c-0.1-0.3-0.2-0.6-0.3-0.9c-0.2-0.2-0.3-0.5-0.5-0.7c-0.2-0.2-0.5-0.4-0.7-0.6c-0.9-0.5-1.6 0-1.6 1.2v23.1c0 .3 0 .6 .1 .8c.1 .3 .2 .6 .3 .9c.2 .2 .3 .5 .5 .7c.2 .2 .5 .4 .7 .6Z" fill="#95a0b0"/><path d="M345.9 247.3c.9 .5 1.6 0 1.6-1.2v-23c0-0.3 0-0.6-0.1-0.9c-0.1-0.3-0.2-0.6-0.3-0.9c-0.1-0.2-0.3-0.5-0.5-0.7c-0.2-0.2-0.4-0.4-0.7-0.6c-0.8-0.5-1.6 0-1.6 1.2v23c0 .3 .1 .6 .1 .9c.1 .3 .2 .6 .4 .8c.1 .3 .3 .5 .5 .8c.2 .2 .4 .4 .6 .6Z" fill="#95a0b0"/><ellipse rx="5" ry="2.9" fill="#ffd7b3" transform="translate(97.2,513.8) rotate(-60) translate(486.3,168.5)"/><ellipse rx="5" ry="2.9" fill="#70ddf0" transform="translate(88.3,508.3) rotate(-60) translate(477.1,173.5)"/><path d="M249.5-16.4l99.4 57.4l-111.8 64.6l-99.4-57.4l111.8-64.5Z" fill="url(#Gradient-2)" transform="translate(40,-10.3)"/><path d="M249.5-27.8l99.4 57.4l-111.8 64.5l-99.4-57.4l111.8-64.5Z" fill="url(#Gradient-3)" transform="translate(40,-10.3)"/><path d="M566.7 9.9l99.4 57.4l-111.8 64.6l-99.4-57.4l111.8-64.6Z" fill="url(#Gradient-4)" transform="translate(-58.7,-17)"/><path d="M566.7-1.6l99.4 57.4l-111.8 64.6l-99.4-57.4l111.8-64.6Z" fill="url(#Gradient-5)" transform="translate(-58.7,-17)"/><g opacity=".6" transform="translate(0,8.3)"><path d="M247.2 318.1c0 2.2-1.5 3.1-3.5 2l-225.6-127c-0.5-0.3-1-0.7-1.4-1.1c-0.4-0.5-0.8-1-1.1-1.5c-0.3-0.5-0.5-1.1-0.7-1.6c-0.2-0.6-0.3-1.2-0.3-1.8l.1-162c0-2.2 1.5-3.1 3.5-2l225.6 127c.5 .3 1 .7 1.4 1.2c.4 .4 .8 .9 1.1 1.4c.3 .5 .5 1.1 .7 1.6c.2 .6 .3 1.2 .3 1.8Z" fill="none" stroke="#718095" stroke-miterlimit="10" stroke-width=".8px"/></g><g opacity=".2" transform="translate(0,8.3)"><path d="M78.3 209.7c-0.1 0-0.2 0-0.3-0.1c-0.1 0-0.1 0-0.2-0.1c-0.1-0.1-0.1-0.2-0.2-0.2c0-0.1 0-0.2 0-0.3v-39.7c0-0.1 .1-0.3 .2-0.4c.1-0.1 .3-0.2 .5-0.2c.2 0 .3 .1 .5 .2c.1 .1 .2 .3 .2 .4v39.7c0 .1 0 .2 0 .3c-0.1 0-0.1 .1-0.2 .2c-0.1 .1-0.1 .1-0.2 .1c-0.1 .1-0.2 .1-0.3 .1Z" fill="url(#Gradient-6)"/><g opacity=".6"><g opacity=".8"><path d="M79.2 215.1c-0.4-0.2-0.2-0.5-0.5-0.7c-0.4-0.2-0.5 .1-0.9-0.1c-0.3-0.2-0.2-0.4-0.5-0.6c-0.3-0.2-0.5 0-0.8-0.2c-0.4-0.2-0.2-0.4-0.6-0.6c-0.3-0.2-0.5 0-0.8-0.2c-0.3-0.2-0.2-0.4-0.5-0.6c-0.4-0.2-0.5 0-0.9-0.2c-0.3-0.2-0.2-0.4-0.5-0.6c-0.3-0.2-0.5 .1-0.8-0.1c-0.4-0.2-0.2-0.5-0.6-0.7" fill="none" stroke="#4a6dc9" stroke-linecap="round" stroke-miterlimit="10"/></g><g opacity=".8"><path d="M83.3 221.4c-0.5-0.3-0.3-0.7-0.8-1c-0.6-0.2-0.8 .1-1.3-0.2c-0.6-0.3-0.3-0.7-0.8-1c-0.6-0.2-0.8 .1-1.3-0.2c-0.6-0.3-0.3-0.7-0.9-1c-0.5-0.3-0.7 .1-1.2-0.2c-0.6-0.3-0.4-0.7-0.9-1c-0.5-0.3-0.7 .1-1.3-0.2c-0.5-0.3-0.3-0.7-0.8-1c-0.5-0.3-0.8 .1-1.3-0.2c-0.5-0.3-0.3-0.7-0.8-1" fill="none" stroke="#4a6dc9" stroke-linecap="round" stroke-miterlimit="10"/></g></g></g><path d="M258.9 345.1c0 1.6-1.2 2.3-2.6 1.5l-230.9-133.3c-0.4-0.3-0.7-0.6-1.1-0.9c-0.3-0.3-0.5-0.7-0.8-1.1c-0.2-0.4-0.4-0.8-0.5-1.2c-0.1-0.4-0.2-0.9-0.2-1.3v-166.9c0-1.7 1.2-2.3 2.6-1.5l230.9 133.3c.4 .3 .7 .6 1 .9c.4 .3 .6 .7 .9 1.1c.2 .4 .4 .8 .5 1.2c.1 .4 .2 .9 .2 1.3Z" fill="url(#Gradient-7)" transform="translate(0,8.3)"/><path d="M247.1 331.6l-13.7-7.9c-2.8-1.6-5-6-5-9.7c0-3.7 2.2-5.4 5-3.8l13.7 7.9c2.7 1.6 5 5.9 5 9.7c0 3.7-2.3 5.4-5 3.8Z" fill="url(#Gradient-8)" opacity=".8" transform="translate(0,8.3)"/><path d="M243.2 330.6l-2.2-3.9c-0.1-0.2-0.3-0.3-0.5-0.2c-0.1 0-0.1 .3 0 .5l2 3.4l-2 1.2c-0.1 .1-0.1 .3 0 .5c0 .1 0 .1 .1 .1c0 0 0 .1 0 .1c0 0 .1 0 .1 0c0 .1 0 .1 .1 .1c0 0 0 0 0 0c0 0 .1 0 .1 0c0 0 0 0 0 0c.1 0 .1 0 .1 0l2.2-1.3c.2 0 .2-0.3 0-0.5Z" fill="#4a6dc9"/><path d="M239.3 328.3l-2.2-3.8c-0.1-0.2-0.3-0.4-0.5-0.3c-0.1 .1-0.1 .3 0 .6l2 3.4l-2 1.1c-0.1 .1-0.1 .4 0 .6c.1 0 .1 0 .1 .1c0 0 0 0 0 0c.1 .1 .1 .1 .1 .1c0 0 .1 0 .1 0c0 .1 0 .1 0 .1c.1 0 .1 0 .1 0c0 0 0 0 .1 0c0 0 0 0 0-0.1l2.2-1.2c.2-0.1 .2-0.3 0-0.6Z" fill="#4a6dc9" opacity=".6"/><path d="M241.3 219c-3.5 0-7.3-1.2-11.6-3.7c-12.5-7.2-21.2-20.5-30.4-34.6c-10.3-15.8-21-32.2-38.2-42.1c-16.4-9.5-30 4.7-43.1 18.5c-12.4 13-25.2 26.5-40 18c-29.2-16.9-47.5-44.7-47.7-44.9c-0.1-0.2-0.1-0.4-0.1-0.6c.1-0.1 .2-0.3 .3-0.4c.2-0.1 .3-0.1 .5-0.1c.2 .1 .4 .1 .5 .3c.1 .2 18.3 27.7 47.2 44.5c13.8 8 25.7-4.6 38.3-17.8c13.5-14.1 27.4-28.8 44.8-18.7c17.4 10 28.3 26.6 38.7 42.6c9.1 13.9 17.7 27.1 29.9 34.2c5.8 3.3 10.8 4.2 14.9 2.8c5.1-1.8 4.1-3.6 4.1-3.7c.1-0.1 .1-0.1 .2-0.2c.1-0.1 .1-0.1 .2-0.2c.1 0 .2 0 .3 0c.1 0 .2 0 .3 0c0 .1 .1 .1 .2 .2c.1 0 .1 .1 .2 .2c0 .1 0 .2 0 .3c0 .1 0 .2 0 .2c-0.1 .3 .7 2.5-5 4.5c-0.4 .1-0.8 .2-1.1 .3c-0.4 .1-0.8 .2-1.1 .3c-0.4 0-0.8 0-1.2 .1c-0.3 0-0.7 0-1.1 0Z" fill="url(#Gradient-9)" transform="translate(0,8.3)"/><path d="M28 133.2c0 0 18.1 27.7 47.5 44.7c29.5 17 50.2-55.5 83.1-36.5c32.9 19 42.4 61.6 68.6 76.7c17.4 10 22.9-4.3 22.9-4.3" fill="none" stroke="url(#Gradient-10)" stroke-linecap="round" stroke-miterlimit="10" stroke-width="1.6px" transform="translate(0,8.3)"/><path d="M64.8 211.5c-0.1 0-0.1 0-0.2-0.1c-0.1 0-0.2-0.1-0.3-0.1c0-0.1-0.1-0.2-0.1-0.3c-0.1 0-0.1-0.1-0.1-0.2v-39.7c0-0.1 .1-0.3 .2-0.5c.2-0.1 .4-0.2 .5-0.2c.2 0 .4 .1 .5 .2c.2 .2 .2 .4 .2 .5v39.7c0 .1 0 .2 0 .2c0 .1-0.1 .2-0.2 .3c0 0-0.1 .1-0.2 .1c-0.1 .1-0.2 .1-0.3 .1Z" fill="url(#Gradient-11)" transform="translate(0,8.3)"/><path d="M213.7 288.1c-0.1 0-0.2 0-0.2 0c-0.1-0.1-0.2-0.1-0.3-0.2c0-0.1-0.1-0.1-0.1-0.2c-0.1-0.1-0.1-0.2-0.1-0.3v-79.8c0-0.2 .1-0.4 .2-0.5c.1-0.2 .3-0.3 .5-0.3c.2 0 .4 .1 .6 .3c.1 .1 .2 .3 .1 .5v79.8c0 .1 0 .2 0 .3c0 .1-0.1 .1-0.2 .2c0 .1-0.1 .1-0.2 .2c-0.1 0-0.2 0-0.3 0Z" fill="url(#Gradient-12)" transform="translate(0,8.3)"/><g opacity=".6" transform="translate(0,8.3)"><g opacity=".8"><path d="M65.7 216.9c-0.3-0.2-0.2-0.5-0.5-0.7c-0.3-0.2-0.5 .1-0.8-0.1c-0.4-0.2-0.2-0.5-0.6-0.7c-0.3-0.2-0.5 .1-0.8-0.1c-0.3-0.2-0.2-0.4-0.5-0.6c-0.4-0.2-0.5 0-0.9-0.2c-0.3-0.2-0.1-0.4-0.5-0.6c-0.3-0.2-0.5 0-0.8-0.2c-0.4-0.2-0.2-0.4-0.6-0.6c-0.3-0.2-0.5 0-0.8-0.2c-0.3-0.2-0.2-0.4-0.5-0.6" fill="none" stroke="#4a6dc9" stroke-linecap="round" stroke-miterlimit="10"/></g><g opacity=".8"><path d="M69.8 223.2c-0.5-0.3-0.3-0.7-0.8-1c-0.5-0.3-0.8 .1-1.3-0.2c-0.5-0.3-0.3-0.7-0.8-1c-0.5-0.3-0.8 .1-1.3-0.2c-0.5-0.3-0.3-0.7-0.8-1c-0.6-0.3-0.8 .1-1.3-0.2c-0.5-0.3-0.3-0.7-0.8-1c-0.6-0.3-0.8 .1-1.3-0.2c-0.6-0.3-0.3-0.7-0.9-1c-0.5-0.3-0.7 .1-1.3-0.2c-0.5-0.3-0.3-0.7-0.8-1" fill="none" stroke="#4a6dc9" stroke-linecap="round" stroke-miterlimit="10"/></g></g><path d="M106.7 235.6c-0.1 0-0.2 0-0.3-0.1c-0.1 0-0.1-0.1-0.2-0.1c-0.1-0.1-0.1-0.2-0.1-0.3c-0.1-0.1-0.1-0.2-0.1-0.2v-66.4c0-0.2 0-0.4 .2-0.5c.1-0.2 .3-0.3 .5-0.3c.2 0 .4 .1 .6 .3c.1 .1 .2 .3 .1 .5v66.4c0 0 0 .1 0 .2c-0.1 .1-0.1 .2-0.2 .3c0 0-0.1 .1-0.2 .1c-0.1 .1-0.2 .1-0.3 .1Z" fill="url(#Gradient-13)" transform="translate(0,8.3)"/><g opacity=".6" transform="translate(0,8.3)"><g opacity=".8"><path d="M112.9 244.2c-0.7-0.4-0.4-0.9-1-1.3c-0.7-0.3-1 .2-1.6-0.2c-0.7-0.4-0.4-0.9-1-1.3c-0.7-0.4-1 .1-1.7-0.2c-0.6-0.4-0.3-0.9-1-1.3c-0.6-0.4-1 .1-1.6-0.3c-0.6-0.3-0.3-0.8-1-1.2c-0.6-0.4-0.9 .1-1.6-0.3c-0.6-0.4-0.3-0.9-1-1.2c-0.6-0.4-1 .1-1.6-0.3c-0.6-0.4-0.3-0.9-1-1.3" fill="none" stroke="#4a6dc9" stroke-linecap="round" stroke-miterlimit="10"/></g><g opacity=".8"><path d="M105.1 243.4c-0.3-0.2-0.1-0.4-0.4-0.6c-0.3-0.1-0.5 .1-0.8-0.1c-0.3-0.2-0.1-0.4-0.4-0.6c-0.3-0.1-0.5 .1-0.8-0.1c-0.3-0.2-0.2-0.4-0.5-0.6c-0.3-0.1-0.4 .1-0.7-0.1c-0.3-0.2-0.2-0.4-0.5-0.6c-0.3-0.1-0.4 .1-0.7-0.1c-0.3-0.2-0.2-0.4-0.5-0.6c-0.3-0.1-0.4 .1-0.7-0.1c-0.3-0.2-0.2-0.4-0.5-0.6" fill="none" stroke="#4a6dc9" stroke-linecap="round" stroke-miterlimit="10"/></g></g><g opacity=".2" transform="translate(0,8.3)"><path d="M124.6 232.9c0 0-0.1 0-0.2-0.1c-0.1 0-0.2-0.1-0.3-0.1c0-0.1-0.1-0.2-0.1-0.3c0-0.1-0.1-0.1-0.1-0.2v-66.4c.1-0.2 .1-0.3 .3-0.4c.1-0.2 .3-0.2 .5-0.2c.1 0 .3 0 .4 .2c.2 .1 .2 .2 .3 .4v66.4c0 .1 0 .1-0.1 .2c0 .1-0.1 .2-0.1 .3c-0.1 0-0.2 .1-0.3 .1c-0.1 .1-0.2 .1-0.3 .1Z" fill="url(#Gradient-14)"/><g opacity=".6"><g opacity=".8"><path d="M130.8 241.5c-0.7-0.4-0.4-0.9-1-1.3c-0.6-0.3-1 .2-1.6-0.2c-0.6-0.4-0.4-0.9-1-1.3c-0.6-0.4-1 .1-1.6-0.2c-0.6-0.4-0.4-0.9-1-1.3c-0.6-0.4-1 .1-1.6-0.3c-0.6-0.3-0.4-0.8-1-1.2c-0.7-0.4-1 .1-1.6-0.3c-0.7-0.4-0.4-0.9-1-1.2c-0.7-0.4-1 .1-1.6-0.3c-0.6-0.4-0.4-0.9-1-1.3" fill="none" stroke="#4a6dc9" stroke-linecap="round" stroke-miterlimit="10"/></g><g opacity=".8"><path d="M123.1 240.7c-0.3-0.1-0.2-0.4-0.5-0.5c-0.3-0.2-0.4 0-0.7-0.2c-0.3-0.1-0.2-0.4-0.5-0.5c-0.3-0.2-0.4 0-0.8-0.2c-0.2-0.2-0.1-0.4-0.4-0.6c-0.3-0.1-0.5 .1-0.8-0.1c-0.3-0.2-0.1-0.4-0.4-0.6c-0.3-0.1-0.5 .1-0.8-0.1c-0.3-0.2-0.1-0.4-0.4-0.6c-0.4-0.1-0.5 .1-0.8-0.1c-0.3-0.1-0.2-0.4-0.5-0.6" fill="none" stroke="#4a6dc9" stroke-linecap="round" stroke-miterlimit="10"/></g></g></g><g opacity=".6" transform="translate(0,8.3)"><g opacity=".8"><path d="M218.2 304.8c-0.6-0.4-0.3-0.9-1-1.3c-0.6-0.4-1 .1-1.6-0.2c-0.6-0.4-0.3-0.9-1-1.3c-0.6-0.4-1 .1-1.6-0.3c-0.6-0.3-0.3-0.8-1-1.2c-0.6-0.4-0.9 .1-1.6-0.3c-0.6-0.4-0.3-0.9-1-1.2c-0.6-0.4-0.9 .1-1.6-0.3c-0.7-0.4-0.4-0.9-1-1.3c-0.6-0.3-0.9 .2-1.6-0.2c-0.7-0.4-0.4-0.9-1-1.3" fill="none" stroke="#4a6dc9" stroke-linecap="round" stroke-miterlimit="10"/></g><g opacity=".8"><path d="M210.5 304c-0.3-0.2-0.2-0.4-0.5-0.6c-0.3-0.1-0.4 .1-0.7-0.1c-0.3-0.2-0.2-0.4-0.5-0.6c-0.3-0.2-0.4 .1-0.7-0.1c-0.3-0.2-0.2-0.4-0.5-0.6c-0.3-0.2-0.4 .1-0.7-0.1c-0.3-0.2-0.2-0.4-0.5-0.6c-0.3-0.2-0.4 .1-0.7-0.1c-0.4-0.2-0.2-0.4-0.5-0.6c-0.3-0.2-0.5 .1-0.8-0.1c-0.3-0.2-0.1-0.4-0.4-0.6" fill="none" stroke="#4a6dc9" stroke-linecap="round" stroke-miterlimit="10"/></g></g><g opacity=".2" transform="translate(0,8.3)"><path d="M231.7 280.9c-0.1 0-0.2 0-0.3 0c-0.1 0-0.2-0.1-0.2-0.2c-0.1 0-0.2-0.1-0.2-0.2c0-0.1 0-0.2 0-0.3v-64.3c-0.1-0.2 0-0.4 .1-0.6c.2-0.1 .4-0.2 .6-0.2c.2 0 .4 .1 .5 .2c.1 .2 .2 .4 .2 .6v64.3c0 .1 0 .2-0.1 .3c0 .1-0.1 .2-0.1 .2c-0.1 .1-0.2 .2-0.3 .2c0 0-0.1 0-0.2 0Z" fill="url(#Gradient-15)"/></g><path d="M44.1 214.2l-13.7-7.9c-2.8-1.6-5-5.9-5-9.6c0-3.7 2.3-5.4 5-3.8l13.7 7.9c2.8 1.6 5 5.9 5 9.6c.1 3.7-2.2 5.4-5 3.8Z" fill="url(#Gradient-16)" opacity=".8" transform="translate(0,8.3)"/><path d="M32.7 209.6l2.2 3.8c.1 .3 .4 .4 .5 .3c.1-0.1 .1-0.3 0-0.5l-2-3.5l2-1.1c.1-0.1 .1-0.3 0-0.6c0 0 0 0-0.1 0c0-0.1 0-0.1 0-0.1c0 0-0.1 0-0.1-0.1c0 0 0 0-0.1 0c0 0 0 0 0 0c0 0 0-0.1-0.1-0.1c0 0 0 .1 0 .1c-0.1 0-0.1 0-0.1 0l-2.2 1.3c-0.1 0-0.1 .2 0 .5Z" fill="#4a6dc9"/><path d="M36.6 211.8l2.2 3.9c.1 .2 .3 .3 .5 .3c.1-0.1 .1-0.4 0-0.6l-2-3.4l2-1.2c.1 0 .1-0.3 0-0.5c0 0 0-0.1-0.1-0.1c0 0 0 0 0-0.1c0 0-0.1 0-0.1 0c0 0 0-0.1-0.1-0.1c0 0 0 0 0 0c0 0-0.1 0-0.1 0c0 0 0 0 0 0c-0.1 0-0.1 0-0.1 0l-2.2 1.3c-0.1 0-0.1 .3 0 .5Z" fill="#4a6dc9" opacity=".6"/><ellipse rx="2" ry="3.5" fill="#f965a8" transform="translate(-23.9,31.5) rotate(-30) translate(31.3,56.1)"/><ellipse rx="2" ry="3.5" fill="#fed22c" transform="translate(-25.2,36.3) rotate(-30) translate(39.7,60.9)"/><ellipse rx="2" ry="3.5" fill="#3ae0c0" transform="translate(-26.4,41.2) rotate(-30) translate(48.1,65.8)"/><ellipse rx="10.9" ry="18.9" fill="#fff" transform="translate(-74,110) rotate(-30) translate(152.7,188.9)"/><path d="M153.9 172.1c-9.7-5.6-17.5-1-17.5 10.1c0 11.1 7.8 24.7 17.5 30.2c9.6 5.6 17.4 1 17.4-10.1c0-11-7.8-24.6-17.4-30.2Zm10.6 19.7l-13.5 7.8c-0.6 .3-1.5-0.2-2-1.2l-5.7-9.9c-1.4-2.3 .7-3.5 2.1-1.2l4.6 8.1l12.5-7.1c1.3-0.8 3.3 2.7 2 3.5Z" fill="url(#Gradient-17)" fill-rule="evenodd" transform="translate(0,8.3)"/><ellipse rx="3.1" ry="5.4" fill="none" opacity=".6" stroke="#4a6dcb" stroke-miterlimit="10" stroke-width=".5px" transform="translate(.5,31.3) rotate(-30) translate(43.1,10.6)"/><ellipse rx="5.2" ry="9" fill="none" opacity=".6" stroke="#4a6dcb" stroke-miterlimit="10" stroke-width=".5px" transform="translate(-118.2,65.8) rotate(-30) translate(48.1,249.3)"/><ellipse rx="2.6" ry="4.6" fill="none" opacity=".6" stroke="#4a6dcb" stroke-miterlimit="10" stroke-width=".5px" transform="translate(-3.2,37.9) rotate(-30) translate(53.7,20.7)"/><path d="M7.9 46.7l-7.9 4.5v-46.8l12.6-7.2v46.7Z" fill="url(#Gradient-18)" opacity="0" transform="translate(368.9,216.9)"/><path d="M107.9 146l-30-4.7v-137.1l30-4.2v142.7Z" fill="url(#Gradient-19)" opacity="0" transform="translate(287.9,141.6) scale(.9,.9)" style="animation: 8s linear infinite both a0_t, 8s linear infinite both a0_o;"/><path d="M368.5 275.6l.4 6.1l135.3-78.1l-11.7-6.7l-123.4 71.3Z" fill="#263d5d"/><path d="M368.9 221.4l135.2-78.1l-135.2-78.1l-135.2 78.1l135.2 78.1Z" fill="#f6f7f8"/></svg>